<svg xmlns="http://www.w3.org/2000/svg" viewBox="0 0 800 800" width="800" height="800">
  <rect width="800" height="800" fill="#2F4A3C"/>
  <ellipse cx="400" cy="600" rx="190" ry="26" fill="#3A5848"/>
  <svg x="275" y="265" xmlns="http://www.w3.org/2000/svg" width="250" height="250" viewBox="0 0 24 24" fill="none" stroke="#E7EFE8" stroke-width="1.1" stroke-linecap="round" stroke-linejoin="round" class="lucide lucide-backpack" aria-hidden="true"><path d="M4 10a4 4 0 0 1 4-4h8a4 4 0 0 1 4 4v10a2 2 0 0 1-2 2H6a2 2 0 0 1-2-2z"></path><path d="M8 10h8"></path><path d="M8 18h8"></path><path d="M8 22v-6a2 2 0 0 1 2-2h4a2 2 0 0 1 2 2v6"></path><path d="M9 6V4a2 2 0 0 1 2-2h2a2 2 0 0 1 2 2v2"></path></svg>
</svg>