<svg xmlns="http://www.w3.org/2000/svg" viewBox="0 0 800 800" width="800" height="800">
  <rect width="800" height="800" fill="#E9DFCC"/>
  <rect x="90" y="90" width="620" height="620" rx="36" fill="none" stroke="#DED1B8" stroke-width="3"/>
         <circle cx="300" cy="300" r="150" fill="#DED1B8"/>
  <svg x="480" y="470" xmlns="http://www.w3.org/2000/svg" width="170" height="170" viewBox="0 0 24 24" fill="none" stroke="#6F5E40" stroke-width="1.3" stroke-linecap="round" stroke-linejoin="round" class="lucide lucide-headphones" aria-hidden="true"><path d="M3 14h3a2 2 0 0 1 2 2v3a2 2 0 0 1-2 2H5a2 2 0 0 1-2-2v-7a9 9 0 0 1 18 0v7a2 2 0 0 1-2 2h-1a2 2 0 0 1-2-2v-3a2 2 0 0 1 2-2h3"></path></svg>
</svg>