<svg xmlns="http://www.w3.org/2000/svg" viewBox="0 0 800 800" width="800" height="800">
  <rect width="800" height="800" fill="#F4F1E8"/>
  <rect x="90" y="90" width="620" height="620" rx="36" fill="none" stroke="#EAE6DA" stroke-width="3"/>
         <circle cx="300" cy="300" r="150" fill="#EAE6DA"/>
  <svg x="480" y="470" xmlns="http://www.w3.org/2000/svg" width="170" height="170" viewBox="0 0 24 24" fill="none" stroke="#5E5B52" stroke-width="1.3" stroke-linecap="round" stroke-linejoin="round" class="lucide lucide-battery-charging" aria-hidden="true"><path d="m11 7-3 5h4l-3 5"></path><path d="M14.856 6H16a2 2 0 0 1 2 2v8a2 2 0 0 1-2 2h-2.935"></path><path d="M22 14v-4"></path><path d="M5.14 18H4a2 2 0 0 1-2-2V8a2 2 0 0 1 2-2h2.936"></path></svg>
</svg>