<svg xmlns="http://www.w3.org/2000/svg" viewBox="0 0 800 800" width="800" height="800">
  <rect width="800" height="800" fill="#DCE5D6"/>
  <ellipse cx="400" cy="600" rx="190" ry="26" fill="#CFDAC7"/>
  <svg x="275" y="265" xmlns="http://www.w3.org/2000/svg" width="250" height="250" viewBox="0 0 24 24" fill="none" stroke="#4B6044" stroke-width="1.1" stroke-linecap="round" stroke-linejoin="round" class="lucide lucide-cooking-pot" aria-hidden="true"><path d="M2 12h20"></path><path d="M20 12v8a2 2 0 0 1-2 2H6a2 2 0 0 1-2-2v-8"></path><path d="m4 8 16-4"></path><path d="m8.86 6.78-.45-1.81a2 2 0 0 1 1.45-2.43l1.94-.48a2 2 0 0 1 2.43 1.46l.45 1.8"></path></svg>
</svg>